<svg xmlns="http://www.w3.org/2000/svg" viewBox="0 0 37.68 37"><defs><style>.cls-1{fill:none;}.cls-2{fill:#fff;}</style></defs><title>資產 5</title><g id="圖層_2" data-name="圖層 2"><g id="圖層_1-2" data-name="圖層 1"><line class="cls-1" y1="37"/><path class="cls-2" d="M27.62,2.61A21.73,21.73,0,0,0,6.07,4.24,12,12,0,0,0,2.23,7.87s12,3.72,15.64-3A10.51,10.51,0,0,0,9.12,6a9.69,9.69,0,0,1,8.15-2.9,12.38,12.38,0,0,1,6.09,2.27A33.77,33.77,0,0,1,26,7.44a14.87,14.87,0,0,1,4.66,15.3H14.18a14.58,14.58,0,0,0,.06,3.1H37S41.44,9.48,27.62,2.61Z"/><path class="cls-2" d="M20.2,32.15A10.51,10.51,0,0,0,29,31a9.69,9.69,0,0,1-8.15,2.9,12.34,12.34,0,0,1-6.09-2.27A32,32,0,0,1,12,29.56a14.89,14.89,0,0,1-4.67-15.3h16.3a14.58,14.58,0,0,0-.07-3.1H1.07s-4.44,16.36,9.38,23.23A21.73,21.73,0,0,0,32,32.76a12.14,12.14,0,0,0,3.84-3.63S23.84,25.41,20.2,32.15Z"/><path class="cls-2" d="M7.81,19.65H30.17a14.58,14.58,0,0,0-.07-3.1H7.75A14.61,14.61,0,0,0,7.81,19.65Z"/></g></g></svg>