<?xml version="1.0" encoding="utf-8"?>
<!-- Generator: Adobe Illustrator 23.0.2, SVG Export Plug-In . SVG Version: 6.00 Build 0)  -->
<svg version="1.1" id="圖層_1" xmlns="http://www.w3.org/2000/svg" xmlns:xlink="http://www.w3.org/1999/xlink" x="0px" y="0px"
	 viewBox="0 0 200 64" style="enable-background:new 0 0 200 64;" xml:space="preserve">
<style type="text/css">
	.st0{fill:none;}
	.st1{fill:#FFFFFF;}
</style>
<title>資產 8</title>
<g>
	<g id="圖層_1-2">
		<rect x="0" class="st0" width="200" height="64"/>
		<path class="st1" d="M14.3,17.7C6.4,17.7,0,24.1,0,32s6.4,14.3,14.3,14.3c7.3,0,13.5-5.6,14.2-12.9H22c-0.8,4.2-4.9,7-9.1,6.2
			s-7-4.9-6.2-9.1c0.8-4.2,4.9-7,9.1-6.2c3.2,0.6,5.6,3.1,6.2,6.2h6.5C27.8,23.3,21.6,17.7,14.3,17.7"/>
		<path class="st1" d="M42.9,17.7c-7.3,0-13.5,5.6-14.2,12.9c0.8,0,1.4,0.6,1.4,1.4s-0.6,1.4-1.4,1.4l0,0
			c0.8,7.9,7.8,13.6,15.6,12.8s13.6-7.8,12.8-15.6C56.3,23.3,50.2,17.7,42.9,17.7z M42.9,39.8c-4.3,0-7.8-3.5-7.8-7.8
			c0-4.3,3.5-7.8,7.8-7.8s7.8,3.5,7.8,7.8S47.2,39.8,42.9,39.8L42.9,39.8z"/>
		<path class="st1" d="M71.4,17.7c-7.9,0-14.3,6.5-14.2,14.4c0,7.3,5.5,13.4,12.8,14.1v-6.5c-4.2-0.8-7-4.9-6.2-9.1
			c0.8-4.2,4.9-7,9.1-6.2c4.2,0.8,7,4.9,6.2,9.1c-0.6,3.2-3.1,5.6-6.2,6.2v6.5c7.8-0.8,13.5-7.9,12.7-15.7
			C84.8,23.3,78.7,17.7,71.4,17.7"/>
		<path class="st1" d="M100,17.7c-7.9,0-14.3,6.3-14.3,14.2c0,7.9,6.3,14.3,14.2,14.3c3.3,0,6.5-1.1,9.1-3.2l-4.6-4.6
			c-3.5,2.4-8.4,1.5-10.8-2c-2.4-3.5-1.5-8.4,2-10.8s8.4-1.5,10.8,2c1.8,2.7,1.8,6.2,0,8.8l4.7,4.6c5-6.1,4-15.1-2.1-20.1
			C106.5,18.8,103.3,17.7,100,17.7"/>
		<path class="st1" d="M127.1,17.8c-7.9,0.8-13.6,7.8-12.8,15.7c0.8,7.9,7.8,13.6,15.7,12.8c6.7-0.7,12.1-6,12.8-12.8
			c-0.8,0-1.4-0.6-1.4-1.4s0.6-1.4,1.4-1.4c-0.7-6.8-6-12.1-12.8-12.8v6.6c4.2,0.8,7,4.9,6.3,9.1s-4.9,7-9.1,6.3s-7-4.9-6.3-9.1
			c0.6-3.2,3.1-5.7,6.3-6.3L127.1,17.8z"/>
		<path class="st1" d="M142.9,33.4c0.8,7.9,7.8,13.6,15.7,12.8c6.7-0.7,12.1-6,12.8-12.8h-6.6c-0.8,4.2-4.8,7-9.1,6.2
			c-3.2-0.6-5.7-3.1-6.2-6.2H142.9z M157.1,17.7c-7.3,0-13.5,5.6-14.2,12.9h6.5c0.8-4.2,4.8-7,9.1-6.2c3.2,0.6,5.7,3.1,6.2,6.2h6.6
			C170.6,23.3,164.5,17.7,157.1,17.7z"/>
		<path class="st1" d="M190.1,38.4c-0.9,0.6-1.9,1-2.9,1.2v6.6c2.8-0.3,5.4-1.4,7.6-3.2L190.1,38.4z M185.7,17.7
			c-7.3,0-13.5,5.6-14.2,12.9c0.8,0,1.4,0.6,1.4,1.4s-0.6,1.4-1.4,1.4c0.7,6.8,6,12.1,12.8,12.8v-6.6c-4.2-0.8-7.1-4.8-6.3-9.1
			s4.8-7.1,9.1-6.3s7.1,4.8,6.3,9.1c-0.2,1.1-0.6,2.1-1.2,3l4.6,4.6c5-6.1,4.1-15.1-2-20.1C192.2,18.8,189,17.7,185.7,17.7
			L185.7,17.7z"/>
	</g>
</g>
</svg>
