<?xml version="1.0" encoding="utf-8"?>
<!-- Generator: Adobe Illustrator 23.0.2, SVG Export Plug-In . SVG Version: 6.00 Build 0)  -->
<svg version="1.1" id="圖層_1" xmlns="http://www.w3.org/2000/svg" xmlns:xlink="http://www.w3.org/1999/xlink" x="0px" y="0px"
	 viewBox="0 0 60 60" style="enable-background:new 0 0 60 60;" xml:space="preserve">
<style type="text/css">
	.st0{fill:#FFFFFF;}
	.st1{fill:none;}
</style>
<title>資產 7</title>
<g>
	<g id="圖層_1-2">
		<path class="st0" d="M4.3,25.7C1.9,25.7,0,27.6,0,30s1.9,4.3,4.3,4.3c2.2,0,4.1-1.7,4.3-3.9h-2c-0.2,1.3-1.5,2.1-2.7,1.9
			c-1.3-0.2-2.1-1.5-1.9-2.7s1.5-2.1,2.7-1.9c0.9,0.2,1.7,0.9,1.9,1.9h2C8.3,27.4,6.5,25.7,4.3,25.7"/>
		<path class="st0" d="M12.9,25.7c-2.2,0-4,1.7-4.3,3.9C8.8,29.6,9,29.8,9,30s-0.2,0.4-0.4,0.4l0,0c0.2,2.4,2.3,4.1,4.7,3.8
			c2.4-0.2,4.1-2.3,3.8-4.7C16.9,27.4,15.1,25.7,12.9,25.7z M12.9,32.3c-1.3,0-2.3-1-2.3-2.3c0-1.3,1-2.3,2.3-2.3
			c1.3,0,2.3,1,2.3,2.3c0,0,0,0,0,0C15.2,31.3,14.2,32.3,12.9,32.3z"/>
		<path class="st0" d="M21.4,25.7c-2.4,0-4.3,2-4.2,4.4c0,2.1,1.7,3.9,3.8,4.2v-2c-1.3-0.2-2.1-1.5-1.9-2.7c0.2-1.3,1.5-2.1,2.7-1.9
			c1.3,0.2,2.1,1.5,1.9,2.7c-0.2,0.9-0.9,1.7-1.9,1.9v2c2.4-0.3,4-2.4,3.8-4.8C25.4,27.4,23.6,25.7,21.4,25.7"/>
		<path class="st0" d="M30,25.7c-2.4,0-4.3,1.9-4.3,4.3c0,2.4,1.9,4.3,4.3,4.3c1,0,2-0.3,2.7-1l-1.4-1.4c-0.4,0.3-0.8,0.4-1.3,0.4
			c-1.3,0-2.3-1-2.3-2.3s1-2.3,2.3-2.3c1.3,0,2.3,1,2.3,2.3c0,0.5-0.1,0.9-0.4,1.3l1.4,1.4c1.5-1.8,1.2-4.5-0.6-6
			C32,26.1,31,25.7,30,25.7"/>
		<path class="st0" d="M38.1,25.7c-2.4,0.2-4.1,2.4-3.8,4.7c0.2,2.4,2.4,4.1,4.7,3.8c2-0.2,3.6-1.8,3.8-3.8c-0.2,0-0.4-0.2-0.4-0.4
			s0.2-0.4,0.4-0.4c-0.2-2-1.8-3.6-3.8-3.8v2c1.3,0.2,2.1,1.5,1.9,2.7c-0.2,1.3-1.5,2.1-2.7,1.9s-2.1-1.5-1.9-2.7
			c0.2-0.9,0.9-1.7,1.9-1.9L38.1,25.7z"/>
		<path class="st0" d="M42.9,30.4c0.3,2.4,2.4,4.1,4.7,3.8c2-0.2,3.6-1.8,3.8-3.8h-2c-0.2,1.3-1.5,2.1-2.7,1.9
			c-0.9-0.2-1.7-0.9-1.9-1.9H42.9z M47.1,25.7c-2.2,0-4,1.7-4.3,3.9h2c0.2-1.3,1.5-2.1,2.7-1.9c0.9,0.2,1.7,0.9,1.9,1.9h2
			C51.3,27.4,49.4,25.7,47.1,25.7z"/>
		<path class="st0" d="M57,31.9c-0.3,0.2-0.6,0.3-0.9,0.4v2c0.8-0.1,1.6-0.4,2.3-0.9L57,31.9z M55.7,25.7c-2.2,0-4,1.7-4.3,3.9
			c0.2,0,0.4,0.2,0.4,0.4s-0.2,0.4-0.4,0.4c0.2,2,1.8,3.6,3.8,3.8v-2c-1.3-0.2-2.1-1.5-1.8-2.7c0.2-1.3,1.5-2.1,2.7-1.8
			c1.1,0.2,1.9,1.2,1.9,2.3c0,0.5-0.1,0.9-0.4,1.3l1.4,1.4c0.6-0.8,1-1.7,1-2.7C60,27.6,58.1,25.7,55.7,25.7L55.7,25.7L55.7,25.7z"
			/>
		<rect x="0" class="st1" width="60" height="60"/>
	</g>
</g>
</svg>
