<svg xmlns="http://www.w3.org/2000/svg" viewBox="0 0 200 64"><defs><style>.cls-1{fill:#fff;}.cls-2{fill:none;}</style></defs><title>資產 6</title><g id="圖層_2" data-name="圖層 2"><g id="圖層_1-2" data-name="圖層 1"><path class="cls-1" d="M48.87,43.57l-1.23,2c-.16.26-.46.78-.91,1.57l-.87,0-.89,0,1.17-3.6,1.24,0Z"/><path class="cls-1" d="M0,46.8H3l.24,1.47h.09a4.75,4.75,0,0,1,3.52-1.75A3.17,3.17,0,0,1,10,48.44a5.06,5.06,0,0,1,3.63-1.91c2.52,0,3.62,1.81,3.62,4.7V58.4H13.6V51.68c0-1.59-.4-2.06-1.32-2.06a2.8,2.8,0,0,0-1.85,1v7.73H6.78V51.67c0-1.59-.4-2.05-1.32-2.05a2.78,2.78,0,0,0-1.85,1v7.74H0Z"/><path class="cls-1" d="M19.41,52.62c0-3.77,2.69-6.09,5.5-6.08,3.34,0,5,2.42,5,5.6a6.77,6.77,0,0,1-.16,1.55h-6.8a2.64,2.64,0,0,0,2.89,2.24,4.69,4.69,0,0,0,2.44-.73l1.2,2.18a7.52,7.52,0,0,1-4.15,1.32A5.65,5.65,0,0,1,19.41,52.62Zm7.39-1.3c0-1.16-.51-2-1.83-2a2.12,2.12,0,0,0-2.12,2Z"/><path class="cls-1" d="M32.2,46.83h2.95l.24,1.45h.08a5.24,5.24,0,0,1,3.71-1.73c2.53,0,3.6,1.81,3.6,4.7v7.17H39.15V51.7c0-1.59-.43-2.06-1.35-2.06a2.77,2.77,0,0,0-2,1v7.73h-3.6Z"/><path class="cls-1" d="M48.39,57.08,50,54.82a4.92,4.92,0,0,0,2.93,1.23c1,0,1.36-.35,1.36-.92s-1.12-1-2.3-1.49c-1.38-.55-3-1.49-3-3.4,0-2.2,1.8-3.68,4.48-3.68a6.76,6.76,0,0,1,4.16,1.49L56,50.21a4.47,4.47,0,0,0-2.41-1c-.81,0-1.22.28-1.22.83s1.06,1,2.26,1.39c1.45.55,3.05,1.38,3.05,3.48S56,58.71,52.84,58.71A7.41,7.41,0,0,1,48.39,57.08Z"/><path class="cls-1" d="M70.69,54V46.86h3.62v6.72c0,1.61.42,2.06,1.34,2.06a2.2,2.2,0,0,0,1.93-1.18v-7.6h3.62V58.45H78.26L78,56.86h-.08a4.51,4.51,0,0,1-3.63,1.87C71.77,58.73,70.69,56.92,70.69,54Z"/><path class="cls-1" d="M84.14,46.87h3l.24,1.45h.08a5.24,5.24,0,0,1,3.71-1.73c2.52,0,3.6,1.82,3.6,4.71v7.16H91.09V51.74c0-1.59-.42-2.05-1.34-2.06a2.77,2.77,0,0,0-2,1v7.74h-3.6Z"/><path class="cls-1" d="M96.94,52.68c0-3.8,2.38-6.08,4.79-6.08a3.63,3.63,0,0,1,2.78,1.2l-.14-1.73V42.21H108V58.47h-3l-.26-1.12h-.08a4.53,4.53,0,0,1-3,1.4C98.78,58.75,96.93,56.45,96.94,52.68Zm7.43,2.13V50.25a2.57,2.57,0,0,0-1.79-.7c-1,0-1.92.94-1.92,3.07s.73,3.16,2,3.16A1.88,1.88,0,0,0,104.37,54.81Z"/><path class="cls-1" d="M110.27,52.69c0-3.76,2.7-6.08,5.5-6.08,3.34,0,5,2.43,5,5.6a6.58,6.58,0,0,1-.17,1.55h-6.8A2.67,2.67,0,0,0,116.66,56a4.81,4.81,0,0,0,2.45-.73l1.19,2.17a7.34,7.34,0,0,1-4.15,1.32A5.66,5.66,0,0,1,110.27,52.69Zm7.39-1.29c0-1.16-.5-2-1.83-2a2.15,2.15,0,0,0-2.12,2Z"/><path class="cls-1" d="M123.06,46.9h3l.24,2h.08a4,4,0,0,1,3.3-2.3,3.26,3.26,0,0,1,1.4.25L130.43,50a4.78,4.78,0,0,0-1.26-.18,2.84,2.84,0,0,0-2.51,2.07v6.62h-3.61Z"/><path class="cls-1" d="M131.7,46.91h3.58l1,5.19c.18,1.14.31,2.3.49,3.46h.1c.2-1.16.39-2.34.68-3.46l1.18-5.19h3.13l1.24,5.19c.27,1.14.47,2.3.71,3.46h.1c.19-1.16.29-2.32.51-3.46l1-5.19h3.36L146.08,58.5h-4.24l-1-4.42c-.22-1.08-.41-2.14-.61-3.4h-.1c-.18,1.26-.35,2.32-.55,3.4l-.94,4.42h-4.13Z"/><path class="cls-1" d="M150,52.73c0-3.77,2.7-6.09,5.51-6.09,3.33,0,5,2.43,5,5.61a6,6,0,0,1-.17,1.54h-6.79A2.64,2.64,0,0,0,156.36,56a4.72,4.72,0,0,0,2.45-.73l1.2,2.18a7.55,7.55,0,0,1-4.16,1.32A5.67,5.67,0,0,1,150,52.73Zm7.4-1.3c0-1.16-.51-2-1.84-2a2.14,2.14,0,0,0-2.11,2Z"/><path class="cls-1" d="M162,55.28c0-2.44,1.92-3.76,6.44-4.25-.08-.94-.57-1.49-1.75-1.49a6.39,6.39,0,0,0-3,1l-1.26-2.38a9.59,9.59,0,0,1,5-1.53c3,0,4.68,1.68,4.67,5.3v6.57h-2.95l-.27-1.16h-.08a4.89,4.89,0,0,1-3.32,1.44A3.34,3.34,0,0,1,162,55.28Zm6.44-.2V53.23c-2.26.3-3,1-3,1.77s.48,1,1.24,1A2.29,2.29,0,0,0,168.42,55.08Z"/><path class="cls-1" d="M174.84,46.94h2.95l.24,2h.08a4,4,0,0,1,3.3-2.29,3.34,3.34,0,0,1,1.41.24L182.21,50a4.86,4.86,0,0,0-1.27-.18,2.83,2.83,0,0,0-2.5,2.07v6.62h-3.6Z"/><path class="cls-1" d="M19.81,37.89V24H4.17V37.88H0l0-32H4.18V19.1H19.83V5.93H24l0,32Z"/><path class="cls-1" d="M34.17,37.89a6.27,6.27,0,0,1-4-1.37,6.85,6.85,0,0,1-2.63-5.91A6.84,6.84,0,0,1,30.2,24.7a6.37,6.37,0,0,1,4-1.41h8c-.48-2.2-2-3.3-4.69-3.3H28V15.18h9.43a8.62,8.62,0,0,1,6.62,2.56A10.8,10.8,0,0,1,46.39,25V37.9Zm8.15-9.78H34.18a2.21,2.21,0,0,0-2.51,2.51c0,1.68.81,2.46,2.51,2.46h8.14Z"/><path class="cls-1" d="M62,37.9H58.46L49.09,15.18h4.56L60.21,31.1,66.8,15.2h4.61Z"/><path class="cls-1" d="M78.37,28.63a4.69,4.69,0,0,0,1.84,3.45,6.86,6.86,0,0,0,4.15,1h7.92V37.9H84.36c-6.89,0-10.28-3.83-10.28-11.57a14.71,14.71,0,0,1,2.11-8,8.52,8.52,0,0,1,7.61-4.08c3.22,0,5.59,1.58,7.19,4.61a16.25,16.25,0,0,1,1.7,7.43v2.41ZM83.79,19c-2.81,0-4.6,1.61-5.32,4.8h9.88C87.64,20.63,86.12,19,83.79,19Z"/><path class="cls-1" d="M104.43,10.85v7.54h15.74v4.86H104.42V37.9h-4.16l0-32,83.4.08v4.91Z"/><path class="cls-1" d="M138.86,37.88c-9.2,0-13.73-3.28-13.73-9.92V17.29h5.8V28c0,2.27.75,3.79,2.32,4.64,1.14.62,3,.91,5.61.91H145l0-16.22h5.73V37.89Z"/><path class="cls-1" d="M176.32,37.89V28c0-2.61-.69-4.36-1.95-5.26-1.13-.72-3.08-1.1-5.86-1.1h-5.66l0,16.21H157V17.29h11.47c9,0,13.54,3.61,13.54,10.73v9.86Z"/><polygon class="cls-1" points="56.19 29.9 64.66 29.9 60.42 37.9 56.19 29.9"/><path class="cls-1" d="M196.44,12.4l-1.18-2.1h-.84v2.1h-.82V7.19h1.7c1.08,0,1.89.39,1.88,1.51a1.44,1.44,0,0,1-1.09,1.49l1.27,2.21Zm-2-2.76h.78c.76,0,1.17-.31,1.17-.94s-.41-.85-1.17-.85h-.78Z"/><path class="cls-1" d="M195.33,14.53A4.67,4.67,0,1,1,200,9.87,4.68,4.68,0,0,1,195.33,14.53Zm0-8.37A3.71,3.71,0,1,0,199,9.87,3.71,3.71,0,0,0,195.34,6.16Z"/><rect class="cls-2" width="200" height="64"/></g></g></svg>