<svg xmlns="http://www.w3.org/2000/svg" viewBox="0 0 60 60"><defs><style>.cls-1{fill:#fff;}.cls-2{fill:none;}</style></defs><title>資產 1</title><g id="圖層_2" data-name="圖層 2"><g id="圖層_1-2" data-name="圖層 1"><path class="cls-1" d="M11.39,25.6v-8h-9v8H0V7.22H2.39V14.8h9V7.22h2.4V25.6Z"/><path class="cls-1" d="M19.65,25.6a3.65,3.65,0,0,1-2.29-.78,3.93,3.93,0,0,1-1.51-3.4A3.92,3.92,0,0,1,17.36,18a3.68,3.68,0,0,1,2.29-.81h4.58c-.28-1.27-1.18-1.9-2.7-1.9H16.1V12.54h5.43A4.9,4.9,0,0,1,25.33,14a6.14,6.14,0,0,1,1.34,4.15V25.6ZM24.33,20H19.65a1.27,1.27,0,0,0-1.44,1.45c0,1,.46,1.41,1.44,1.41h4.68Z"/><path class="cls-1" d="M35.65,25.6h-2l-5.4-13.06h2.62l3.78,9.15,3.78-9.15h2.65Z"/><path class="cls-1" d="M45.07,20.28a2.69,2.69,0,0,0,1,2,4,4,0,0,0,2.39.57h4.56V25.6H48.51c-4,0-5.91-2.2-5.91-6.65a8.35,8.35,0,0,1,1.21-4.63A4.88,4.88,0,0,1,48.18,12a4.46,4.46,0,0,1,4.14,2.65,9.38,9.38,0,0,1,1,4.27v1.39Zm3.11-5.54c-1.62,0-2.65.93-3.06,2.77H50.8C50.39,15.67,49.51,14.74,48.18,14.74Z"/><path class="cls-1" d="M2.39,30.55v4.34h9v2.79h-9v8.43H0V27.73H53.3v2.82Z"/><path class="cls-1" d="M24,46.11c-6.52,0-9.73-2.08-9.73-6.29V33.05h4.11v6.77a3,3,0,0,0,1.65,3,9.69,9.69,0,0,0,4,.57H28.4V33.05h4.06V46.11Z"/><path class="cls-1" d="M49.24,46.11V39.85c0-1.66-.49-2.77-1.39-3.34a9.06,9.06,0,0,0-4.15-.69h-4V46.11h-4.1V33.05H43.7c6.38,0,9.6,2.29,9.6,6.8v6.26Z"/><polygon class="cls-1" points="32.3 12.54 37.17 12.54 34.74 17.14 32.3 12.54"/><path class="cls-1" d="M14.35,48.33l-.36.6c-.05.07-.14.23-.27.46H13.2l.35-1.06h.8Z"/><path class="cls-1" d="M0,49.3H.87l.07.43H1a1.39,1.39,0,0,1,1-.52.93.93,0,0,1,.93.56A1.47,1.47,0,0,1,4,49.21c.74,0,1.07.53,1.07,1.38V52.7H4v-2c0-.46-.12-.6-.39-.6a.83.83,0,0,0-.54.31V52.7H2v-2c0-.46-.12-.6-.39-.6a.83.83,0,0,0-.54.31V52.7H0Z"/><path class="cls-1" d="M5.7,51a1.68,1.68,0,0,1,1.61-1.79c1,0,1.46.71,1.46,1.65a1.64,1.64,0,0,1,0,.45h-2a.77.77,0,0,0,.85.66,1.31,1.31,0,0,0,.71-.22l.36.64a2.23,2.23,0,0,1-1.22.39A1.66,1.66,0,0,1,5.7,51Zm2.17-.38c0-.34-.15-.6-.54-.6a.63.63,0,0,0-.62.6Z"/><path class="cls-1" d="M9.45,49.3h.87l.07.42h0a1.5,1.5,0,0,1,1.08-.51c.75,0,1.06.53,1.06,1.38V52.7H11.5v-2c0-.46-.13-.6-.4-.6a.81.81,0,0,0-.59.31V52.7H9.45Z"/><path class="cls-1" d="M14.21,52.3l.47-.66a1.43,1.43,0,0,0,.86.36c.28,0,.4-.1.4-.27s-.33-.3-.67-.44-.89-.43-.89-1,.53-1.08,1.32-1.08a2,2,0,0,1,1.22.44l-.48.63a1.3,1.3,0,0,0-.71-.29c-.23,0-.35.09-.35.25s.31.28.66.41.9.4.9,1-.49,1.11-1.42,1.11A2.17,2.17,0,0,1,14.21,52.3Z"/><path class="cls-1" d="M20.76,51.4V49.3h1.06v2c0,.47.13.6.4.6a.64.64,0,0,0,.57-.34V49.3h1.06v3.4H23l-.07-.47h0a1.31,1.31,0,0,1-1.06.55C21.08,52.78,20.76,52.25,20.76,51.4Z"/><path class="cls-1" d="M24.71,49.3h.86l.08.42h0a1.52,1.52,0,0,1,1.09-.51c.74,0,1.06.53,1.06,1.38V52.7H26.75v-2c0-.46-.12-.6-.39-.6a.83.83,0,0,0-.6.31V52.7H24.71Z"/><path class="cls-1" d="M28.47,51a1.6,1.6,0,0,1,1.4-1.79,1.08,1.08,0,0,1,.82.35l0-.5V47.92h1.07V52.7h-.87l-.07-.33h0a1.32,1.32,0,0,1-.89.41C29,52.78,28.47,52.11,28.47,51Zm2.18.62V50.28a.75.75,0,0,0-.53-.2c-.29,0-.56.27-.56.9s.22.93.58.93A.56.56,0,0,0,30.65,51.62Z"/><path class="cls-1" d="M32.38,51A1.68,1.68,0,0,1,34,49.21c1,0,1.46.71,1.46,1.65a2.16,2.16,0,0,1-.05.45h-2a.78.78,0,0,0,.85.66,1.34,1.34,0,0,0,.72-.22l.35.64a2.21,2.21,0,0,1-1.22.39A1.67,1.67,0,0,1,32.38,51Zm2.17-.38c0-.34-.15-.6-.53-.6a.64.64,0,0,0-.63.6Z"/><path class="cls-1" d="M36.14,49.3H37l.07.59h0a1.16,1.16,0,0,1,1-.68,1,1,0,0,1,.41.07l-.18.92a1.36,1.36,0,0,0-.37-.06.84.84,0,0,0-.73.61v2H36.14Z"/><path class="cls-1" d="M38.67,49.3h1.06l.3,1.52c.06.33.09.68.14,1h0c.06-.34.12-.69.2-1l.35-1.52h.92L42,50.82c.08.33.14.68.21,1h0c.06-.34.09-.69.15-1l.3-1.52h1l-.8,3.4H41.66l-.29-1.3c-.07-.32-.12-.63-.18-1h0c0,.37-.1.68-.16,1l-.28,1.3H39.51Z"/><path class="cls-1" d="M44,51a1.68,1.68,0,0,1,1.62-1.79c1,0,1.46.71,1.46,1.65a2.16,2.16,0,0,1,0,.45h-2a.78.78,0,0,0,.85.66,1.34,1.34,0,0,0,.72-.22l.35.64a2.21,2.21,0,0,1-1.22.39A1.67,1.67,0,0,1,44,51Zm2.17-.38c0-.34-.15-.6-.53-.6a.64.64,0,0,0-.63.6Z"/><path class="cls-1" d="M47.57,51.75c0-.72.56-1.11,1.89-1.25,0-.28-.17-.44-.51-.44a1.88,1.88,0,0,0-.89.3l-.37-.7a2.79,2.79,0,0,1,1.46-.45c.88,0,1.38.49,1.38,1.56V52.7h-.87l-.08-.34h0a1.46,1.46,0,0,1-1,.42A1,1,0,0,1,47.57,51.75Zm1.89-.06v-.55c-.66.09-.88.28-.88.52s.15.3.37.3A.69.69,0,0,0,49.46,51.69Z"/><path class="cls-1" d="M51.34,49.3h.87l.07.59h0a1.15,1.15,0,0,1,1-.68,1,1,0,0,1,.41.07l-.18.92a1.36,1.36,0,0,0-.37-.06.85.85,0,0,0-.74.61v2H51.34Z"/><path class="cls-1" d="M58,12.05l-.68-1.21h-.48v1.21h-.47v-3h1c.62,0,1.08.22,1.08.86a.83.83,0,0,1-.63.86l.74,1.27Zm-1.16-1.59h.45c.44,0,.67-.18.67-.54s-.23-.49-.67-.49h-.45Z"/><path class="cls-1" d="M57.32,13.28A2.69,2.69,0,1,1,60,10.59,2.7,2.7,0,0,1,57.32,13.28Zm0-4.82a2.13,2.13,0,1,0,2.13,2.13A2.14,2.14,0,0,0,57.32,8.46Z"/><rect class="cls-2" width="60" height="60"/></g></g></svg>