<svg xmlns="http://www.w3.org/2000/svg" viewBox="0 0 280 75"><defs><style>.cls-1{fill:#0b1d37;}</style></defs><title>資產 5</title><g id="圖層_2" data-name="圖層 2"><g id="圖層_1-2" data-name="圖層 1"><path class="cls-1" d="M68.42,53.39l-1.73,2.88c-.21.36-.64,1.1-1.26,2.22l-1.23,0-1.24,0,1.63-5.09,1.74,0Z"/><path class="cls-1" d="M0,58H4.15l.34,2.08H4.6c1.34-1.35,2.74-2.48,4.93-2.47A4.45,4.45,0,0,1,14,60.3c1.39-1.44,2.91-2.71,5.07-2.71,3.54,0,5.07,2.58,5.07,6.67V74.42H19V64.89c0-2.25-.57-2.91-1.85-2.91a3.9,3.9,0,0,0-2.6,1.47v11H9.49V64.89C9.5,62.64,8.93,62,7.65,62a3.92,3.92,0,0,0-2.6,1.47v11H0Z"/><path class="cls-1" d="M27.17,66.23c0-5.34,3.77-8.63,7.7-8.62,4.68,0,7,3.44,7,7.94a9.61,9.61,0,0,1-.23,2.19H32.07a3.71,3.71,0,0,0,4,3.18,6.58,6.58,0,0,0,3.42-1L41.22,73a10.44,10.44,0,0,1-5.82,1.87C30.75,74.83,27.17,71.66,27.17,66.23Zm10.35-1.84c0-1.65-.71-2.86-2.57-2.86-1.39,0-2.62.89-3,2.86Z"/><path class="cls-1" d="M45.08,58h4.13l.34,2h.11a7.32,7.32,0,0,1,5.19-2.45c3.54,0,5,2.58,5,6.67V74.45H54.81V64.92c0-2.25-.6-2.91-1.88-2.91s-1.82.52-2.82,1.47v11h-5Z"/><path class="cls-1" d="M67.74,72.56,70,69.35a6.79,6.79,0,0,0,4.1,1.74c1.34,0,1.91-.49,1.91-1.3,0-1-1.57-1.44-3.22-2.11-1.94-.78-4.22-2.11-4.21-4.82,0-3.12,2.51-5.22,6.27-5.22a9.33,9.33,0,0,1,5.81,2.11l-2.28,3.06A6.18,6.18,0,0,0,75,61.42c-1.14,0-1.71.4-1.71,1.18,0,1,1.48,1.36,3.16,2,2,.78,4.27,2,4.27,4.94S78.4,74.87,74,74.87A10.35,10.35,0,0,1,67.74,72.56Z"/><path class="cls-1" d="M99,68.22V58.06h5.07v9.52c0,2.28.6,2.92,1.88,2.92a3.07,3.07,0,0,0,2.71-1.67V58.07h5.07V74.5h-4.13l-.37-2.25h-.12A6.24,6.24,0,0,1,104,74.89C100.48,74.89,99,72.32,99,68.22Z"/><path class="cls-1" d="M117.79,58.08h4.13l.34,2.05h.12a7.28,7.28,0,0,1,5.19-2.45c3.53,0,5,2.58,5,6.67V74.51h-5.08V65c0-2.25-.59-2.91-1.88-2.91s-1.82.52-2.82,1.47v11h-5Z"/><path class="cls-1" d="M135.71,66.32c0-5.4,3.34-8.63,6.71-8.62a5.06,5.06,0,0,1,3.9,1.7l-.2-2.45V51.46h5.1l0,23.06h-4.13l-.37-1.59h-.12a6.28,6.28,0,0,1-4.24,2C138.3,74.92,135.71,71.66,135.71,66.32Zm10.4,3V62.86a3.56,3.56,0,0,0-2.51-1c-1.4,0-2.68,1.33-2.68,4.36s1,4.47,2.76,4.47A2.6,2.6,0,0,0,146.11,69.33Z"/><path class="cls-1" d="M154.38,66.33c0-5.34,3.77-8.62,7.7-8.62,4.68,0,7,3.44,6.95,7.94a9.16,9.16,0,0,1-.23,2.2h-9.52A3.73,3.73,0,0,0,163.33,71a6.56,6.56,0,0,0,3.42-1l1.68,3.09a10.44,10.44,0,0,1-5.82,1.87C158,74.94,154.38,71.76,154.38,66.33Zm10.35-1.83c0-1.65-.71-2.86-2.56-2.86-1.4,0-2.63.89-3,2.85Z"/><path class="cls-1" d="M172.29,58.12h4.13l.34,2.85h.11c1.2-2.19,3-3.25,4.63-3.25a4.38,4.38,0,0,1,2,.35l-.86,4.41a6.65,6.65,0,0,0-1.76-.26c-1.2,0-2.65.78-3.51,2.94v9.38h-5Z"/><path class="cls-1" d="M184.37,58.13h5l1.45,7.36c.25,1.62.42,3.26.68,4.91h.14c.29-1.65.54-3.32,1-4.91l1.65-7.36h4.39l1.73,7.37c.37,1.61.66,3.26,1,4.9h.14c.26-1.64.4-3.29.72-4.9l1.4-7.36h4.7l-3.83,16.42h-5.93l-1.36-6.27c-.31-1.53-.57-3-.85-4.82h-.14c-.26,1.79-.49,3.29-.78,4.82l-1.31,6.26h-5.79Z"/><path class="cls-1" d="M210,66.38c0-5.34,3.77-8.63,7.71-8.62,4.67,0,7,3.44,6.94,7.94a9.07,9.07,0,0,1-.23,2.19h-9.51a3.7,3.7,0,0,0,4,3.17,6.55,6.55,0,0,0,3.42-1L224,73.12A10.42,10.42,0,0,1,218.19,75C213.55,75,210,71.81,210,66.38Zm10.35-1.84c0-1.64-.71-2.86-2.56-2.86-1.4,0-2.62.9-3,2.86Z"/><path class="cls-1" d="M226.78,70c0-3.46,2.68-5.33,9-6-.11-1.33-.8-2.11-2.45-2.11a8.89,8.89,0,0,0-4.25,1.44l-1.76-3.38a13.37,13.37,0,0,1,7-2.16c4.19,0,6.56,2.37,6.55,7.51V74.6h-4.13L236.35,73h-.11a6.86,6.86,0,0,1-4.65,2A4.72,4.72,0,0,1,226.78,70Zm9-.28V67.09c-3.17.43-4.19,1.36-4.19,2.51,0,1,.68,1.42,1.73,1.42A3.17,3.17,0,0,0,235.78,69.72Z"/><path class="cls-1" d="M244.77,58.18h4.14l.34,2.85h.11c1.2-2.19,3-3.25,4.62-3.25a4.43,4.43,0,0,1,2,.35l-.86,4.41a6.73,6.73,0,0,0-1.77-.26c-1.2,0-2.65.78-3.51,2.94v9.38h-5Z"/><path class="cls-1" d="M27.74,45.35V25.62l-21.91,0,0,19.73H0L0,0H5.86l0,18.7H27.76V0H33.6l0,45.32Z"/><path class="cls-1" d="M47.84,45.34a8.78,8.78,0,0,1-5.57-1.93c-2.5-1.86-3.69-4.68-3.69-8.39s1.2-6.52,3.71-8.37a8.78,8.78,0,0,1,5.57-2H59Q58,20,52.43,20H39.22V13.14H52.44c4,0,7.07,1.27,9.26,3.65S65,22.73,65,27l0,18.33ZM59.25,31.48H47.85c-2.38,0-3.5,1.19-3.51,3.56s1.13,3.49,3.51,3.49H59.24Z"/><path class="cls-1" d="M86.79,45.36h-5L68.72,13.15h6.39L84.3,35.71l9.22-22.54H100Z"/><path class="cls-1" d="M109.72,32.21c.38,2.38,1.19,4,2.57,4.9s3.19,1.41,5.82,1.41h11.08v6.83H118.1c-9.64,0-14.39-5.43-14.38-16.41a20.89,20.89,0,0,1,3-11.42,11.84,11.84,0,0,1,10.65-5.77c4.51,0,7.82,2.23,10.07,6.53a23.14,23.14,0,0,1,2.37,10.54v3.41Zm7.59-13.64c-3.94,0-6.45,2.29-7.46,6.82h13.84C122.69,20.87,120.56,18.57,117.31,18.57Z"/><path class="cls-1" d="M146.21,6V17.69l22,0v6.9l-22,0V45.36h-5.82l0-45.32L257.16.14v6Z"/><path class="cls-1" d="M194.4,45.34c-12.88,0-19.22-4.66-19.22-14.07l0-15.13h8.11V31.27c0,3.23,1,5.38,3.25,6.59,1.59.88,4.15,1.29,7.85,1.29h8.65l0-23h8l0,29.18Z"/><path class="cls-1" d="M246.84,45.34v-14c0-3.7-1-6.18-2.73-7.46-1.58-1-4.32-1.55-8.2-1.56H228l0,23h-8.11l0-29.19,16,0c12.62,0,19,5.12,19,15.21v14Z"/><polygon class="cls-1" points="78.66 34.01 90.53 34.02 84.58 45.36 78.66 34.01"/><path class="cls-1" d="M275,10.22l-1.65-3h-1.18v3H271V2.83h2.38c1.51,0,2.64.54,2.64,2.14a2.06,2.06,0,0,1-1.53,2.12l1.78,3.13ZM272.18,6.3h1.1c1.06,0,1.64-.44,1.64-1.33s-.58-1.21-1.64-1.21h-1.1Z"/><path class="cls-1" d="M273.46,13.24A6.62,6.62,0,1,1,280,6.62,6.6,6.6,0,0,1,273.46,13.24Zm0-11.88a5.26,5.26,0,1,0,5.18,5.26A5.23,5.23,0,0,0,273.47,1.36Z"/></g></g></svg>