<svg xmlns="http://www.w3.org/2000/svg" viewBox="0 0 500 70"><defs><style>.cls-1{fill:#636363;}.cls-2{fill:#88c74a;}.cls-3{fill:none;}</style></defs><title>資產 7</title><g id="圖層_2" data-name="圖層 2"><g id="图层_1" data-name="图层 1"><path class="cls-1" d="M349.06,25.62h-8.88a1.19,1.19,0,0,0-.13-.57l-3.27-6.32c-.71-1.39-2.81-.16-2.09,1.22l2.92,5.67h-11.8a1.22,1.22,0,0,0,0,2.43H335V52.31a1.22,1.22,0,0,0,2.43,0V34.69l9.51,6.79c1.27.91,2.48-1.2,1.22-2.1l-10.73-7.66V28.05h11.68A1.22,1.22,0,0,0,349.06,25.62Z"/><path class="cls-1" d="M323,31.87c-2.38-3.06,1-4.4,1.4-7,.61-3.66-3.05-5.27-5.57-6.95-1.3-.87-2.52,1.24-1.22,2.1,1,.64,2.79,1.37,3.44,2.29C323,25,320.76,26,320,28.07c-1.41,3.65.83,4.36,2.93,6.63,2.74,3-.85,6.33-2.49,8.9l-4.19,6.58c-.84,1.32,1.26,2.54,2.1,1.22L324,42.5c1.48-2.32,3.86-4.94,2.28-7.83C325.45,33.19,324,33.09,323,31.87Z"/><path class="cls-1" d="M379.71,28.86h-9V21.73h.48c2.43,0,5.62.52,6.77-1.89a1.29,1.29,0,0,0,.32-.91h0c.31-1.53-2-2.18-2.34-.65s-4.11,1.28-6.25,1.11a1.14,1.14,0,0,0-.26,0c-.38,0-.69-.06-.9-.06h-6.65a1.22,1.22,0,0,0,0,2.43h6.4v7.13h-7.37a1.21,1.21,0,0,0,0,2.42h7.37v2.4c-3.53,0-6.38.53-6.47,5-.09,4,0,8.08,0,12.12a1.22,1.22,0,0,0,2.43,0c0-3.09,0-6.19,0-9.28a15.43,15.43,0,0,1,0-3.78c.52-1.79,2.43-1.77,4.05-1.68V52.31a1.22,1.22,0,0,0,2.43,0v-21h9A1.21,1.21,0,0,0,379.71,28.86Z"/><path class="cls-1" d="M374.29,33.73V50.79a1.22,1.22,0,0,0,2.43,0V33.73A1.22,1.22,0,0,0,374.29,33.73Z"/><path class="cls-1" d="M385.47,42.84V23.11a1.22,1.22,0,0,0-2.43,0V42.84A1.22,1.22,0,0,0,385.47,42.84Z"/><path class="cls-1" d="M392.92,19a1.22,1.22,0,0,0-2.43,0v20c0,2.6.72,6.53,0,9.07-1.1,3.86-6.37,2.7-9.47,2.7a1.21,1.21,0,0,0,0,2.42c2.9,0,7.66.94,10.14-1s1.76-5.57,1.76-8.23Z"/><path class="cls-1" d="M404,39.41a.43.43,0,0,0,0,.16s0,.06,0,.1l.06.16c.94,2.66,4.18,2.53,6.67,2.22,2.2-.28,2.85-1.51,3-3.54.19-3.12,0-6.31,0-9.43,0-2.2.44-5,0-7.14-.91-4.26-9.35-3.85-9.77.59-.52,5.47,0,11.22,0,16.72A.94.94,0,0,0,404,39.41Zm2.39-16.88c.43-.92,3.77-1.47,4.66-.59.73.73.28,3.13.28,4.14v7.36c0,1.33.55,4.16,0,5.38-.44,1-4.43,1.53-4.94.17v-3.2h3a1.21,1.21,0,0,0,0-2.42h-3v-4.6h3a1.21,1.21,0,0,0,0-2.42h-3.14A8.71,8.71,0,0,1,406.42,22.53Z"/><path class="cls-1" d="M413.62,46.17c-.94-2.3-2.35-2.59-4.67-2.59-2.16,0-3.51.21-4.6,2.23s-2,3.81-3,5.72c-.72,1.39,1.37,2.61,2.09,1.23l2.24-4.31c.89-1.71,1-2.44,3-2.44.66,0,1.8-.22,2.32.2.35.28.57,1.41.74,1.84l1.82,4.52c.57,1.43,2.92.8,2.34-.65Z"/><path class="cls-1" d="M436.85,32.42a1.22,1.22,0,0,0,0-2.43h-5.5V28.05h3.15a1.22,1.22,0,0,0,0-2.43h-3.15V23.23h4.45a1.22,1.22,0,0,0,0-2.43h-4.45V19a1.22,1.22,0,0,0-2.43,0V20.8h-5.58V19a1.22,1.22,0,0,0-2.43,0V20.8h-4.37a1.22,1.22,0,0,0,0,2.43h4.37v2.39h-3.48a1.22,1.22,0,0,0,0,2.43h3.48V30h-5.18a1.22,1.22,0,0,0,0,2.43h9.35v1.25c-.95,0-1.9,0-2.85,0-2.23,0-3.9.49-4.15,3a62,62,0,0,0-.19,7.85h-2.16a1.21,1.21,0,0,0,0,2.42H418c.06,1.8.12,3.59.12,5.35a1.21,1.21,0,0,0,2.42,0V47h11.33v5.35a1.22,1.22,0,0,0,2.43,0V47h2.59a1.21,1.21,0,0,0,0-2.42h-2.59V34.92a1.22,1.22,0,0,0-2.43,0v4.62H427.5V36.1h2.89a1.22,1.22,0,0,0,0-2.43H427.5V32.42ZM420.5,42h4.58v2.59H420.5Zm11.33,0v2.59H427.5V42Zm-6.75-2.43H420.5V38.35c0-2.39.52-2.25,2.84-2.25h1.74Zm-1.74-16.31h5.58v2.39h-5.58Zm0,4.82h5.58V30h-5.58Z"/><path class="cls-1" d="M182.5,15.93v6.8H171.92a22.67,22.67,0,0,0-6,.57,6.13,6.13,0,0,0-3.15,2.23,7,7,0,0,0-1.17,2.29,24.81,24.81,0,0,0-.55,3.89H182.5v6.81H161.05c.31,3.28,1.28,5.55,2.92,6.83s4.42,1.92,8.35,1.92H182.5v6.81H171.92a49.24,49.24,0,0,1-7.55-.52A13,13,0,0,1,156.19,49q-4.35-5.26-4.34-14.24,0-10,6.12-15.5a12.08,12.08,0,0,1,4.49-2.63,21.83,21.83,0,0,1,6.37-.74Z"/><path class="cls-1" d="M213.5,22.73h-24v-6.8h33.11v7L199.37,47.27h23.22v6.81H189.48V47.5Z"/><path class="cls-1" d="M244.34,31.42H263V54.08H246a29.61,29.61,0,0,1-7-.66,12.49,12.49,0,0,1-4.72-2.32q-6-4.64-6-16a24.23,24.23,0,0,1,2.86-12.3,12.67,12.67,0,0,1,5.78-5.26,23.31,23.31,0,0,1,9.5-1.65H263v6.8H247.31q-5.09,0-7.38,2.23-2.75,2.64-2.74,9.44a25.79,25.79,0,0,0,.71,6.29,9.76,9.76,0,0,0,2,4.18,6.13,6.13,0,0,0,3,1.83,16.78,16.78,0,0,0,4.72.57H255v-9H244.34Z"/><path class="cls-1" d="M288.27,15.7a24.38,24.38,0,0,1,10.07,1.94,13.45,13.45,0,0,1,7.15,7.84,28.66,28.66,0,0,1,1.6,10.06,24.48,24.48,0,0,1-1.94,10.13,14,14,0,0,1-7.55,7.15,23.68,23.68,0,0,1-8.7,1.48,24.57,24.57,0,0,1-11.21-2.4,13.4,13.4,0,0,1-6.12-6.29,23.36,23.36,0,0,1-2.11-10.41q0-10.92,5.43-15.56Q279.47,15.76,288.27,15.7Zm.06,6.4c-3.74,0-6.4,1.22-8,3.66q-1.95,2.86-1.95,9.21,0,6.69,2.4,9.84t7.61,3.09q5,0,7.41-3.15T298.17,35q0-6-1.94-9.15Q294,22.16,288.33,22.1Z"/><path class="cls-2" d="M114.74,5.46c-12.81-6.37-28.1-4.84-40.06,3a22.75,22.75,0,0,0-7.14,6.76s22.31,6.92,29.08-5.61a19.51,19.51,0,0,0-16.27,2.16S85.4,5.57,95.51,6.38a23.2,23.2,0,0,1,11.32,4.23c1.45,1,3.18,2.3,5,3.82a27.73,27.73,0,0,1,8.69,28.46H89.76a27,27,0,0,0,.11,5.76h42.31S140.44,18.24,114.74,5.46Z"/><path class="cls-2" d="M101,60.37a19.51,19.51,0,0,0,16.27-2.16s-5.06,6.22-15.16,5.41a23.2,23.2,0,0,1-11.32-4.23c-1.46-1-3.19-2.3-5-3.82a27.73,27.73,0,0,1-8.69-28.46h30.31a26.39,26.39,0,0,0-.13-5.76H65.38S57.12,51.76,82.82,64.54c12.82,6.37,28.11,4.84,40.06-3,3-2,5.69-4.29,7.15-6.76C130,54.76,107.71,47.84,101,60.37Z"/><path class="cls-2" d="M77.92,37.13h41.56a27,27,0,0,0-.13-5.76H77.81A27,27,0,0,0,77.92,37.13Z"/><rect class="cls-1" x="25.74" y="34.02" width="22.53" height="1.96"/><rect class="cls-1" x="451.73" y="34.02" width="22.53" height="1.96"/><rect class="cls-3" width="500" height="70"/></g></g></svg>