<svg xmlns="http://www.w3.org/2000/svg" viewBox="0 0 265 37"><defs><style>.cls-1{fill:none;}.cls-2{fill:#fff;}</style></defs><title>資產 12</title><g id="圖層_2" data-name="圖層 2"><g id="图层_1" data-name="图层 1"><rect class="cls-1" width="265" height="37"/><path class="cls-2" d="M187.28,13.32h-4.91a.66.66,0,0,0-.08-.32l-1.8-3.49c-.4-.76-1.56-.09-1.16.68l1.61,3.13h-6.52a.67.67,0,0,0,0,1.34h5.05v13.4a.68.68,0,0,0,1.35,0V18.33l5.25,3.75c.71.5,1.38-.66.68-1.16l-5.93-4.23v-2h6.46A.67.67,0,0,0,187.28,13.32Z"/><path class="cls-2" d="M172.88,16.77c-1.32-1.69.53-2.43.77-3.86.34-2-1.69-2.91-3.08-3.84-.72-.48-1.39.69-.68,1.16.53.36,1.55.76,1.91,1.27,1,1.49-.18,2-.61,3.17-.78,2,.46,2.41,1.62,3.67,1.51,1.63-.47,3.49-1.38,4.91l-2.31,3.63c-.47.73.69,1.4,1.16.68l3.13-4.92c.82-1.28,2.14-2.73,1.26-4.32C174.22,17.5,173.4,17.44,172.88,16.77Z"/><path class="cls-2" d="M204.22,15.11h-5V11.17h.27c1.34,0,3.11.29,3.74-1a.75.75,0,0,0,.18-.5h0c.17-.85-1.12-1.21-1.29-.36s-2.28.71-3.46.61h-.15l-.49,0h-3.68a.67.67,0,0,0,0,1.34h3.54v3.94h-4.08a.67.67,0,0,0,0,1.34h4.08v1.32c-1.95,0-3.53.29-3.58,2.76-.05,2.23,0,4.46,0,6.69a.67.67,0,0,0,1.34,0c0-1.71,0-3.42,0-5.12a8.6,8.6,0,0,1,0-2.09c.29-1,1.34-1,2.24-.93v9a.67.67,0,0,0,1.34,0V16.45h5A.67.67,0,0,0,204.22,15.11Z"/><path class="cls-2" d="M201.22,17.8v9.42a.68.68,0,0,0,1.35,0V17.8A.68.68,0,0,0,201.22,17.8Z"/><path class="cls-2" d="M207.41,22.83V11.93a.68.68,0,0,0-1.35,0v10.9A.68.68,0,0,0,207.41,22.83Z"/><path class="cls-2" d="M211.52,9.65a.67.67,0,0,0-1.34,0v11c0,1.44.4,3.61,0,5-.61,2.12-3.52,1.48-5.24,1.48a.67.67,0,0,0,0,1.34c1.61,0,4.24.52,5.61-.56s1-3.07,1-4.54Z"/><path class="cls-2" d="M217.67,20.94a.22.22,0,0,0,0,.08l0,.06,0,.08c.52,1.48,2.31,1.41,3.69,1.23,1.21-.15,1.57-.83,1.64-1.95.11-1.72,0-3.48,0-5.21a20,20,0,0,0,0-3.94c-.5-2.35-5.17-2.13-5.4.32-.29,3,0,6.2,0,9.24A.37.37,0,0,0,217.67,20.94ZM219,11.61a2.39,2.39,0,0,1,2.58-.32c.4.4.15,1.72.15,2.28v4.07c0,.73.31,2.3,0,3s-2.45.84-2.73.09V18.94h1.66a.67.67,0,0,0,0-1.34H219V15.06h1.66a.67.67,0,0,0,0-1.34h-1.74A4.94,4.94,0,0,1,219,11.61Z"/><path class="cls-2" d="M223,24.67c-.52-1.27-1.3-1.43-2.58-1.43s-1.94.11-2.54,1.23-1.1,2.11-1.65,3.16c-.4.76.76,1.44,1.16.68s.83-1.59,1.24-2.38c.49-.95.54-1.35,1.66-1.35.36,0,1-.12,1.28.11s.31.78.41,1l1,2.49c.32.79,1.62.45,1.3-.36C223.82,26.79,223.4,25.73,223,24.67Z"/><path class="cls-2" d="M235.82,17.07a.67.67,0,0,0,0-1.34h-3V14.66h1.75a.67.67,0,0,0,0-1.34h-1.75V12h2.46a.67.67,0,0,0,0-1.34h-2.46v-1a.67.67,0,0,0-1.34,0v1h-3.09v-1a.67.67,0,0,0-1.34,0v1h-2.42a.67.67,0,0,0,0,1.34H227v1.32h-1.92a.67.67,0,0,0,0,1.34H227v1.07h-2.86a.67.67,0,0,0,0,1.34h5.17v.7h-1.58c-1.23,0-2.16.27-2.3,1.67a34.76,34.76,0,0,0-.1,4.34h-1.19a.67.67,0,0,0,0,1.34h1.23c0,1,.06,2,.06,2.95a.68.68,0,0,0,1.35,0V25.12H233v2.95a.67.67,0,0,0,1.34,0V25.12h1.44a.67.67,0,0,0,0-1.34h-1.44V18.46a.67.67,0,0,0-1.34,0V21h-2.39v-1.9h1.59a.67.67,0,0,0,0-1.34h-1.59v-.7Zm-9,5.28h2.53v1.43h-2.53Zm6.26,0v1.43h-2.39V22.35ZM229.31,21h-2.53v-.66c0-1.32.28-1.24,1.57-1.24h1Zm-1-9h3.09v1.32h-3.09Zm0,2.66h3.09v1.07h-3.09Z"/><path class="cls-2" d="M95.18,8v3.75H89.33A12.48,12.48,0,0,0,86,12a3.34,3.34,0,0,0-1.74,1.23,3.57,3.57,0,0,0-.65,1.27,12.32,12.32,0,0,0-.3,2.14H95.18v3.76H83.32a5.19,5.19,0,0,0,1.61,3.78q1.36,1.05,4.62,1.05h5.63V29H89.33a27.14,27.14,0,0,1-4.18-.28,7.19,7.19,0,0,1-4.52-2.5,11.94,11.94,0,0,1-2.4-7.86c0-3.66,1.12-6.52,3.38-8.56a6.67,6.67,0,0,1,2.48-1.45A12,12,0,0,1,87.62,8Z"/><path class="cls-2" d="M112.32,11.72H99V8h18.32v3.88L104.51,25.27h12.84V29H99V25.4Z"/><path class="cls-2" d="M129.37,16.53h10.34V29h-9.42a16.62,16.62,0,0,1-3.88-.36,6.92,6.92,0,0,1-2.61-1.28q-3.31-2.55-3.32-8.81a13.35,13.35,0,0,1,1.58-6.79,7,7,0,0,1,3.2-2.91A12.85,12.85,0,0,1,130.51,8h9.2v3.75H131A5.72,5.72,0,0,0,126.93,13c-1,1-1.52,2.7-1.52,5.21a14.2,14.2,0,0,0,.4,3.47A5.41,5.41,0,0,0,126.9,24a3.47,3.47,0,0,0,1.66,1,9.33,9.33,0,0,0,2.61.31h4.08v-5h-5.88Z"/><path class="cls-2" d="M153.66,7.84a13.63,13.63,0,0,1,5.57,1.07,7.44,7.44,0,0,1,4,4.33,15.86,15.86,0,0,1,.89,5.56A13.37,13.37,0,0,1,163,24.39a7.71,7.71,0,0,1-4.17,3.95,13,13,0,0,1-4.81.82,13.53,13.53,0,0,1-6.2-1.33,7.39,7.39,0,0,1-3.38-3.47,12.9,12.9,0,0,1-1.17-5.75c0-4,1-6.89,3-8.59Q148.79,7.88,153.66,7.84Zm0,3.54a4.89,4.89,0,0,0-4.43,2,9.22,9.22,0,0,0-1.08,5.08c0,2.47.45,4.28,1.33,5.44a5,5,0,0,0,4.21,1.7,4.81,4.81,0,0,0,4.09-1.73c.88-1.16,1.31-2.95,1.31-5.37a9.67,9.67,0,0,0-1.07-5.06C157.24,12.09,155.78,11.4,153.7,11.38Z"/><path class="cls-2" d="M57.71,2.19A22.34,22.34,0,0,0,35.56,3.86a12.5,12.5,0,0,0-4,3.73S44,11.41,47.69,4.49a10.8,10.8,0,0,0-9,1.19,10,10,0,0,1,8.38-3A12.86,12.86,0,0,1,53.34,5c.8.56,1.76,1.27,2.75,2.11a15.3,15.3,0,0,1,4.8,15.72h-17A14.09,14.09,0,0,0,44,26h23.4S71.92,9.24,57.71,2.19Z"/><path class="cls-2" d="M50.08,32.51a10.8,10.8,0,0,0,9-1.19,10,10,0,0,1-8.38,3A12.83,12.83,0,0,1,44.44,32c-.81-.56-1.76-1.27-2.76-2.11a15.32,15.32,0,0,1-4.8-15.72H53.64A14.7,14.7,0,0,0,53.57,11H30.42s-4.57,16.8,9.64,23.85a22.34,22.34,0,0,0,22.15-1.67,12.39,12.39,0,0,0,3.95-3.73S53.82,25.59,50.08,32.51Z"/><path class="cls-2" d="M37.35,19.68h23a14.68,14.68,0,0,0-.07-3.18h-23A14.69,14.69,0,0,0,37.35,19.68Z"/><rect class="cls-2" x="8.5" y="17.96" width="12.46" height="1.08"/><rect class="cls-2" x="244.04" y="17.96" width="12.46" height="1.08"/></g></g></svg>